HIERARCHY
ROOT SimulationBone
{
	OFFSET 0.000000 0.000000 0.000000
	CHANNELS 6 Xposition Yposition Zposition Zrotation Yrotation Xrotation 
	JOINT Hips
	{
		OFFSET 0.000000 0.000000 0.000000
		CHANNELS 6 Xposition Yposition Zposition Zrotation Yrotation Xrotation 
		JOINT LeftUpLeg
		{
			OFFSET 0.103456 1.857832 10.548506
			CHANNELS 3 Zrotation Yrotation Xrotation
			JOINT LeftLeg
			{
				OFFSET 43.499996 -0.000050 0.000004
				CHANNELS 3 Zrotation Yrotation Xrotation
				JOINT LeftFoot
				{
					OFFSET 42.372196 0.000023 -0.000001
					CHANNELS 3 Zrotation Yrotation Xrotation
					JOINT LeftToe
					{
						OFFSET 17.299999 -0.000001 0.000005
						CHANNELS 3 Zrotation Yrotation Xrotation
						End Site
						{
							OFFSET 0.000000 0.000000 0.000000
						}
					}
				}
			}
		}
		JOINT RightUpLeg
		{
			OFFSET 0.103461 1.857838 -10.548502
			CHANNELS 3 Zrotation Yrotation Xrotation
			JOINT RightLeg
			{
				OFFSET 43.500053 -0.000023 0.000017
				CHANNELS 3 Zrotation Yrotation Xrotation
				JOINT RightFoot
				{
					OFFSET 42.372261 -0.000019 0.000013
					CHANNELS 3 Zrotation Yrotation Xrotation
					JOINT RightToe
					{
						OFFSET 17.299999 -0.000002 0.000004
						CHANNELS 3 Zrotation Yrotation Xrotation
						End Site
						{
							OFFSET 0.000000 0.000000 0.000000
						}
					}
				}
			}
		}
		JOINT Spine
		{
			OFFSET 6.901962 -2.603720 0.000005
			CHANNELS 3 Zrotation Yrotation Xrotation
			JOINT Spine1
			{
				OFFSET 12.588104 -0.000017 -0.000004
				CHANNELS 3 Zrotation Yrotation Xrotation
				JOINT Spine2
				{
					OFFSET 12.343203 0.000008 0.000001
					CHANNELS 3 Zrotation Yrotation Xrotation
					JOINT Neck
					{
						OFFSET 25.832893 0.000002 -0.000003
						CHANNELS 3 Zrotation Yrotation Xrotation
						JOINT Head
						{
							OFFSET 11.766610 0.000004 -0.000002
							CHANNELS 3 Zrotation Yrotation Xrotation
							End Site
							{
								OFFSET 0.000000 0.000000 0.000000
							}
						}
					}
					JOINT LeftShoulder
					{
						OFFSET 19.745901 -1.480358 6.000100
						CHANNELS 3 Zrotation Yrotation Xrotation
						JOINT LeftArm
						{
							OFFSET 11.284128 -0.000004 -0.000015
							CHANNELS 3 Zrotation Yrotation Xrotation
							JOINT LeftForeArm
							{
								OFFSET 33.000053 0.000025 0.000029
								CHANNELS 3 Zrotation Yrotation Xrotation
								JOINT LeftHand
								{
									OFFSET 25.200005 0.000009 -0.000002
									CHANNELS 3 Zrotation Yrotation Xrotation
									End Site
									{
										OFFSET 0.000000 0.000000 0.000000
									}
								}
							}
						}
					}
					JOINT RightShoulder
					{
						OFFSET 19.746098 -1.480389 -6.000077
						CHANNELS 3 Zrotation Yrotation Xrotation
						JOINT RightArm
						{
							OFFSET 11.284138 -0.000023 -0.000010
							CHANNELS 3 Zrotation Yrotation Xrotation
							JOINT RightForeArm
							{
								OFFSET 33.000103 0.000022 0.000003
								CHANNELS 3 Zrotation Yrotation Xrotation
								JOINT RightHand
								{
									OFFSET 25.199776 0.000131 0.000429
									CHANNELS 3 Zrotation Yrotation Xrotation
									End Site
									{
										OFFSET 0.000000 0.000000 0.000000
									}
								}
							}
						}
					}
				}
			}
		}
	}
}
MOTION
Frames: 11
Frame Time: 0.033333
92.012597 0.000000 382.321264 180.000000 -68.865715 180.000000 -0.200639 91.379501 1.187665 93.885114 2.116526 -171.140682 -178.561581 -0.537003 168.181756 -17.897858 -1.834634 -8.929960 88.563477 6.072591 -0.627084 21.454550 0.003084 -0.000002 177.793963 -0.739294 179.330373 -20.679327 2.349430 8.557033 84.397909 -5.431049 3.226523 21.454557 -0.003105 -0.000016 7.844786 -0.054417 0.284109 5.676437 -0.122660 0.565251 5.358357 -0.119116 0.565980 -2.056295 -4.766682 -1.761304 -9.344856 7.173148 -5.257137 -167.766603 -69.738697 -13.920406 -8.326118 59.401554 38.973517 -35.643376 -20.368900 1.697117 15.066824 -12.767279 -7.746807 157.710120 72.593067 -21.577727 -3.184294 -58.517980 -41.073489 -43.176720 23.113828 -2.106930 10.581225 6.921715 -10.310829 
92.293167 0.000000 382.056809 180.000000 -71.446444 180.000000 0.121564 91.198700 1.200107 93.912804 1.799237 -173.288524 -178.458022 -0.203297 167.572353 -18.162784 -1.971149 -8.288636 88.839540 5.690201 -0.258636 21.454553 0.003104 0.000001 177.185175 -0.110304 -178.537539 -22.541011 1.739804 7.567547 85.348473 -4.713010 3.397290 21.454558 -0.003107 -0.000020 7.873795 -0.157826 0.202502 5.734205 -0.325494 0.396974 5.416112 -0.322954 0.398947 -1.530199 -4.685108 -1.727589 -9.223879 7.230156 -5.187563 -168.919608 -70.227636 -12.728774 -9.854191 54.936035 43.833818 -33.859744 -20.767996 1.681160 14.055458 -7.384584 -10.321154 156.966312 73.170690 -22.305989 -3.765521 -55.980910 -42.035190 -43.665748 23.411734 -2.141429 11.844012 6.823136 -7.662227 
92.475792 0.000000 381.883035 180.000000 -73.896040 180.000000 0.254098 90.954422 1.178744 93.934426 1.318647 -175.448375 -178.580323 0.476504 167.927249 -18.646490 -2.035942 -8.335961 89.181001 5.737194 -0.114237 21.454553 0.003088 -0.000000 176.133134 0.617709 -178.369243 -25.023585 1.623075 7.603561 86.424877 -4.685315 3.786946 21.454555 -0.003119 -0.000017 7.915979 -0.309745 0.134040 5.818505 -0.625837 0.252444 5.500383 -0.624179 0.256211 -1.087237 -4.483826 -1.715152 -9.137902 7.349147 -5.128984 -169.703495 -70.776251 -11.920552 -11.746605 51.096345 45.780555 -31.563786 -20.193622 1.593861 13.485812 -3.345532 -10.018192 156.239703 73.407895 -23.035317 -4.759421 -53.635488 -41.409005 -43.147094 23.263115 -2.115992 12.538470 5.990764 -8.329666 
92.566727 0.000000 381.794123 180.000000 -76.188446 180.000000 0.320892 90.669769 1.106370 94.134689 0.735480 -177.528911 -178.622110 1.339598 168.605310 -19.250412 -2.020470 -8.648081 89.566128 5.939553 -0.106433 21.454553 0.003092 -0.000000 174.782041 1.331493 -178.984192 -28.317211 1.585667 8.015202 87.344083 -4.887424 4.378916 21.454560 -0.003100 -0.000017 8.003320 -0.477026 0.067173 5.993533 -0.956931 0.109668 5.675389 -0.956115 0.115449 -0.721158 -4.382208 -1.729959 -9.244720 7.437042 -5.135641 -170.052094 -71.249890 -11.562480 -13.052462 48.608916 43.758228 -29.493843 -19.626841 1.515623 14.064570 -1.952173 -7.364963 155.431528 73.314219 -23.867247 -5.851597 -52.076706 -39.893222 -41.144612 23.777651 -2.091766 12.432876 4.852330 -9.555380 
92.572229 0.000000 381.784255 180.000000 -78.303070 180.000000 0.359818 90.492943 1.027383 94.368370 0.429786 -179.527539 -178.504904 1.903707 169.065664 -19.589567 -1.998086 -8.887692 89.795131 6.094153 -0.112355 21.454550 0.003088 -0.000001 173.076474 1.761396 -179.072861 -32.140562 1.302963 8.067664 87.173131 -4.812724 4.946541 21.454558 -0.003110 -0.000018 8.090981 -0.586680 0.034516 6.169244 -1.174401 0.037842 5.851056 -1.174023 0.044940 -0.405724 -4.222402 -1.741744 -9.601512 7.301537 -5.078971 -170.109891 -71.565636 -11.504153 -13.830094 46.814882 40.477320 -27.866391 -19.499676 1.476794 15.916718 -3.387609 -5.131226 154.801333 73.018704 -24.529443 -6.880708 -50.947207 -37.677922 -38.656921 23.958383 -2.034705 12.998037 4.424909 -9.934827 
92.498551 0.000000 381.847612 180.000000 -80.224958 180.000000 0.357767 90.301132 0.917004 94.551972 0.178553 178.713806 -178.522690 2.316888 169.119541 -20.137954 -1.947223 -8.858450 90.129626 6.068903 -0.086327 21.454555 0.003086 -0.000002 171.251639 2.187694 -178.743646 -36.027230 0.887847 7.875300 86.654849 -4.577602 5.358688 21.454558 -0.003114 -0.000017 8.166606 -0.666786 0.030380 6.320666 -1.334270 0.024451 6.002469 -1.333977 0.032514 -0.249994 -4.173759 -1.793111 -9.875828 7.206395 -5.104055 -170.401199 -71.768841 -11.204718 -13.997762 45.655716 37.309987 -26.520235 -20.236426 1.499617 16.112602 -4.920902 -4.934767 154.583327 72.883658 -24.760674 -7.606943 -50.523042 -35.146282 -36.289977 23.844380 -1.965506 14.105388 4.643248 -8.853873 
92.351950 0.000000 381.978375 180.000000 -81.944515 180.000000 0.317243 90.146599 0.763576 94.717535 0.032832 177.267442 -178.538099 2.569699 168.941942 -20.663434 -1.852283 -8.629265 90.444921 5.912561 -0.035346 21.454555 0.003091 0.000000 169.515938 2.577892 -178.221547 -39.608448 0.517750 7.660432 85.663468 -4.350599 5.528870 21.454560 -0.003119 -0.000016 8.238375 -0.699525 0.035821 6.464168 -1.400068 0.035096 6.145969 -1.399691 0.043559 -0.258607 -4.389549 -1.874820 -9.899826 7.314087 -5.280619 -170.749784 -71.847368 -10.845775 -13.740196 44.790007 34.175835 -26.687274 -21.230858 1.565665 15.767782 -5.067639 -6.822971 154.250069 73.027556 -25.092614 -7.868852 -51.022309 -32.212624 -34.628929 23.844363 -1.924593 15.416637 5.685470 -7.902234 
92.138680 0.000000 382.170725 180.000000 -83.456926 180.000000 0.259713 90.053482 0.620843 94.853231 -0.003692 176.122111 -178.463513 2.666715 169.288711 -20.971384 -1.913504 -8.630609 90.641740 5.911023 -0.025889 21.454553 0.003093 0.000000 167.921635 2.816809 -177.837103 -42.811861 0.281284 7.559865 84.231778 -4.231628 5.473410 21.454557 -0.003113 -0.000018 8.303306 -0.702895 0.043033 6.593964 -1.407137 0.046091 6.275772 -1.406677 0.054593 -0.338521 -4.556233 -1.947924 -9.921761 7.501074 -5.460764 -170.440978 -72.008273 -11.164777 -13.549985 44.197017 31.841095 -28.353824 -21.612616 1.620397 16.053752 -4.982188 -10.068401 154.245301 73.017748 -25.098109 -7.616113 -51.386136 -30.387747 -34.054159 23.739185 -1.904056 16.831680 6.599898 -5.474039 
91.864997 0.000000 382.418845 180.000000 -84.761387 180.000000 0.205598 90.030983 0.524303 94.994888 0.160157 175.260250 -178.251504 2.446010 169.650943 -21.135202 -2.048713 -8.572091 90.769389 5.869908 -0.037349 21.454550 0.003082 -0.000001 166.669252 2.839303 -177.504951 -45.483415 0.142944 7.553655 82.912650 -4.058760 6.026931 21.454555 -0.003098 -0.000016 8.369305 -0.659810 0.046025 6.725884 -1.321203 0.053724 6.407698 -1.320706 0.061719 -0.474525 -4.644303 -1.985057 -9.922588 7.663106 -5.575874 -169.620809 -72.080455 -12.010119 -13.324456 43.726871 30.662816 -30.544128 -21.832747 1.677696 15.489076 -4.717056 -11.153350 154.521309 72.875509 -24.824638 -6.908679 -51.550064 -30.611573 -34.186743 23.674720 -1.903004 16.618503 6.936868 -4.289084 
91.537156 0.000000 382.716916 180.000000 -85.860290 180.000000 0.152573 90.018082 0.451652 95.090874 0.315577 174.740944 -178.054808 2.145791 170.047777 -21.303215 -2.178613 -8.443783 90.889881 5.776926 -0.085422 21.454550 0.003095 0.000000 165.776259 2.807408 -177.356749 -47.510956 0.238698 7.843721 82.393228 -4.178500 6.320920 21.454558 -0.003103 -0.000019 8.415030 -0.606951 0.026606 6.817514 -1.214439 0.017542 6.499326 -1.214173 0.024869 -0.580015 -4.605636 -2.029081 -9.911709 7.710637 -5.626045 -169.073191 -72.077484 -12.574253 -13.001382 43.550686 31.358703 -32.584541 -22.238650 1.747346 15.475308 -5.879911 -12.484263 154.955081 72.707350 -24.391145 -6.063802 -51.758890 -31.602090 -34.581060 23.538862 -1.903586 15.925097 6.220830 -4.417027 
91.161412 0.000000 383.059118 180.000000 -86.758434 180.000000 0.105850 90.082764 0.389173 95.069776 0.595422 174.540505 -177.835354 1.674698 170.528841 -21.253505 -2.285825 -8.292952 90.890331 5.669411 -0.150802 21.454553 0.003094 -0.000002 165.421458 2.533714 -177.006005 -47.978298 0.362075 8.507622 82.711740 -4.608076 6.614132 21.454555 -0.003108 -0.000017 8.421371 -0.520521 -0.001422 6.830327 -1.040098 -0.033486 6.512172 -1.040141 -0.027190 -0.606054 -4.413038 -2.126449 -9.920957 7.640233 -5.649575 -168.991188 -72.087872 -12.658713 -12.526839 43.744097 32.630334 -34.596278 -22.472557 1.808454 14.871034 -7.765480 -12.041223 155.483997 72.619090 -23.855199 -5.111408 -52.484232 -33.029159 -35.113863 23.736786 -1.929328 15.358688 5.129929 -5.408886 
